<svg width="226" height="46" viewBox="0 0 226 46" xmlns="http://www.w3.org/2000/svg" xmlns:xlink="http://www.w3.org/1999/xlink">
    <defs>
        <path d="M0 0h224.59v45H0V0z" id="1n8afs746a"/>
    </defs>
    <g fill="none" xlink:href="#1n8afs746a">
        <text font-family="PingFangSC-Medium, PingFang SC" font-size="32.427" font-weight="400" fill="#D80264" transform="translate(.481 .649)">
            <tspan x="55.59" y="34">AI Beautify</tspan>
        </text>
        <g fill-rule="evenodd">
            <path d="m21.554 14.648 3.416-3.416a1.49 1.49 0 0 1 2.106 0l3.852 3.852a1.49 1.49 0 0 1 0 2.106l-3.415 3.416m-5.959-5.958-14.46 14.46a1.49 1.49 0 0 0-.436 1.053v3.852c0 .822.667 1.49 1.49 1.49H12a1.49 1.49 0 0 0 1.053-.437l14.46-14.46m-5.959-5.958 5.959 5.958" stroke="#D80264" stroke-width="3.088" stroke-linecap="round" stroke-linejoin="round"/>
            <path d="M8.838 19.289c.302 0 .468-.161.498-.483.13-1.005.264-1.794.4-2.367.135-.573.351-1.006.648-1.297.296-.292.736-.513 1.32-.664.582-.15 1.387-.306 2.412-.467.352-.06.528-.232.528-.513a.445.445 0 0 0-.136-.34.703.703 0 0 0-.332-.173 35.978 35.978 0 0 1-2.427-.52c-.594-.156-1.043-.374-1.35-.656-.307-.281-.528-.704-.664-1.267-.135-.563-.268-1.347-.4-2.352-.03-.322-.195-.483-.497-.483a.512.512 0 0 0-.354.129.482.482 0 0 0-.158.339c-.131 1.025-.267 1.827-.408 2.405-.14.578-.359 1.015-.656 1.312-.296.297-.741.518-1.334.664-.593.145-1.408.289-2.443.43a.582.582 0 0 0-.332.165.47.47 0 0 0-.136.347c0 .14.046.254.136.34.09.085.201.143.332.173 1.035.19 1.85.367 2.443.527.593.161 1.038.385 1.334.672.297.286.513.71.649 1.274.136.563.274 1.347.415 2.352.01.13.062.239.158.324a.512.512 0 0 0 .354.129zM29.47 38.672c.201 0 .322-.115.362-.347.131-.713.252-1.279.362-1.696.11-.417.272-.74.483-.965.21-.226.528-.4.95-.52.422-.121 1.015-.247 1.78-.378.23-.04.346-.165.346-.377 0-.21-.116-.336-.347-.377-.764-.13-1.357-.258-1.78-.384-.421-.126-.738-.3-.95-.52-.21-.221-.371-.54-.482-.958-.11-.417-.231-.988-.362-1.711-.04-.222-.16-.332-.362-.332-.21 0-.336.11-.377.332-.13.723-.251 1.294-.362 1.711-.11.417-.271.737-.482.958-.211.22-.528.394-.95.52-.422.126-1.01.254-1.764.384-.232.04-.347.166-.347.377 0 .212.115.337.347.377.754.131 1.342.257 1.764.377.422.121.739.295.95.52.211.227.372.549.482.966.111.417.232.983.362 1.696.02.1.06.184.121.25.06.064.146.097.256.097z" fill="#D80264"/>
        </g>
    </g>
</svg>
