<svg width="33" height="39" viewBox="0 0 33 39" fill="none" xmlns="http://www.w3.org/2000/svg">
    <path d="M28.86 13.324c-1.167 0-2.134.924-2.134 2.045v7.955c0 1.121.934 2.046 2.133 2.046 1.166 0 2.133-.925 2.133-2.047V15.37a2.125 2.125 0 0 0-2.133-2.045v-.001zm-25.728 0c-1.165 0-2.132.924-2.132 2.044v7.956c0 1.121.933 2.046 2.132 2.046 1.2 0 2.134-.925 2.134-2.047V15.37c0-1.122-.934-2.045-2.134-2.045v-.001zm3.433.066v14.553c0 .858.733 1.584 1.666 1.584h1.9v4.422c0 1.123.933 2.046 2.132 2.046 1.167 0 2.134-.923 2.134-2.046v-4.422h3.332v4.422c0 1.123.933 2.046 2.133 2.046 1.165 0 2.132-.923 2.132-2.046v-4.422h1.9c.933 0 1.666-.693 1.666-1.584V13.39H6.565zm13.93-7.525 1.766-2.376c.066-.165.066-.363-.1-.43-.134-.098-.333-.032-.434.1l-1.8 2.475a11.703 11.703 0 0 0-3.931-.693c-1.4 0-2.732.231-3.932.693l-1.8-2.474c-.1-.165-.3-.2-.433-.1a.311.311 0 0 0-.067.429l1.766 2.377c-2.765 1.22-4.731 3.53-4.965 6.236h18.962c-.3-2.706-2.233-5.016-5.032-6.237zm-8.498 3.762c-.6 0-1.033-.429-1.033-.99 0-.561.466-.99 1.033-.99.6 0 1.033.429 1.033.99 0 .561-.467.99-1.033.99zm8.131 0c-.6 0-1.033-.429-1.033-.99 0-.561.467-.99 1.033-.99.6 0 1.033.429 1.033.99 0 .561-.466.99-1.033.99z" fill="#fff"/>
</svg>
