<svg width="88" height="98" viewBox="0 0 88 98" fill="none" xmlns="http://www.w3.org/2000/svg">
    <path fill-rule="evenodd" clip-rule="evenodd" d="m41.018 36.521-.311.094c-7.158 2.152-14.95 4.495-21.306 7.682a12.54 12.54 0 0 0-6.82 12.06c.32 4.782 1.389 8.522 3.331 15.325l.144.504c1.945 6.808 3.013 10.549 5.264 14.75a12.084 12.084 0 0 0 12.077 6.372c7.028-.831 14.82-3.174 21.978-5.326l.312-.094c7.158-2.152 14.95-4.495 21.304-7.688a12.54 12.54 0 0 0 6.821-12.053c-.32-4.783-1.388-8.523-3.332-15.332l-.144-.503c-1.943-6.803-3.011-10.544-5.262-14.745a12.085 12.085 0 0 0-12.078-6.378c-7.028.837-14.82 3.18-21.978 5.332z" fill="#8FBFFA"/>
    <path fill-rule="evenodd" clip-rule="evenodd" d="M33.146 9.98c-3.042.914-5.576 2.62-7.023 5.26-1.44 2.637-1.502 5.69-.628 8.752.871 3.05 2.535 5.585 5.135 7.007 1.292.707 2.688 1.075 4.15 1.145l1.582 5.538c1.399-.433 2.796-.853 4.164-1.265l.311-.093c1.374-.413 2.771-.833 4.177-1.243l-1.581-5.539a9.885 9.885 0 0 0 2.892-3.262c1.44-2.637 1.508-5.692.636-8.748-.873-3.056-2.537-5.591-5.137-7.013-2.6-1.423-5.636-1.454-8.678-.54zM32.716 52.342a3.703 3.703 0 0 1 4.639 2.538l.997 3.494a3.83 3.83 0 0 1-2.57 4.705 3.702 3.702 0 0 1-4.639-2.537l-.998-3.494a3.83 3.83 0 0 1 2.57-4.706zm23.311-7.01a3.703 3.703 0 0 1 4.639 2.538l.998 3.494a3.83 3.83 0 0 1-2.571 4.706 3.702 3.702 0 0 1-4.639-2.538l-.997-3.494a3.83 3.83 0 0 1 2.57-4.705zM36.261 70.09c1.455-1.475 3.803-1.511 5.269-.08l.05.041a8.412 8.412 0 0 0 2.138 1.238c1.527.61 3.895 1.075 7.096.113 3.195-.961 4.949-2.671 5.92-4.027a8.771 8.771 0 0 0 1.142-2.23l.022-.057c.535-1.965 2.51-3.168 4.472-2.726 1.962.442 3.209 2.372 2.823 4.37l-3.653-.796 3.655.802.003.011-.006.021-.012.047-.034.124-.104.359a16.487 16.487 0 0 1-2.24 4.436c-1.822 2.567-4.92 5.405-9.926 6.91-4.994 1.502-9.094.829-11.984-.322a15.814 15.814 0 0 1-4.22-2.494 8.987 8.987 0 0 1-.27-.246l-.087-.087-.04-.031-.011-.016-.008-.004s-.003-.012 2.654-2.704l-2.661 2.7a3.752 3.752 0 0 1-1.095-2.666c.002-1.004.4-1.97 1.107-2.686z" fill="#2859C5"/>
</svg>
