<svg width="173" height="50" viewBox="0 0 173 50" xmlns="http://www.w3.org/2000/svg" xmlns:xlink="http://www.w3.org/1999/xlink">
    <defs>
        <path d="M0 0h172.059v49H0V0z" id="4galok78ta"/>
    </defs>
    <g fill="none" xlink:href="#4galok78ta">
        <text font-family="PingFangSC-Medium, PingFang SC" font-size="34.451" font-weight="400" fill="#D80264" transform="translate(.243 .754)">
            <tspan x="59.059" y="37">AI 美化</tspan>
        </text>
        <g fill-rule="evenodd">
            <path d="m22.631 16.221 3.63-3.628a1.583 1.583 0 0 1 2.237 0l4.093 4.092c.617.618.617 1.62 0 2.238l-3.63 3.629m-6.33-6.33L7.27 31.583c-.297.296-.464.699-.464 1.119v4.092c0 .874.709 1.583 1.583 1.583h4.092c.42 0 .823-.167 1.12-.464l15.362-15.362m-6.33-6.33 6.33 6.33" stroke="#D80264" stroke-width="3.281" stroke-linecap="round" stroke-linejoin="round"/>
            <path d="M9.122 21.152c.32 0 .496-.17.529-.512.138-1.069.28-1.907.424-2.516.144-.609.374-1.068.689-1.378.315-.31.782-.544 1.402-.704.62-.16 1.474-.326 2.563-.497.374-.064.56-.246.56-.545 0-.15-.047-.27-.143-.36a.747.747 0 0 0-.353-.185 38.224 38.224 0 0 1-2.58-.552c-.63-.166-1.107-.398-1.433-.697-.326-.3-.56-.748-.705-1.346-.144-.598-.286-1.431-.424-2.5-.033-.341-.209-.512-.53-.512a.544.544 0 0 0-.376.136.512.512 0 0 0-.168.36c-.139 1.09-.283 1.942-.432 2.556-.15.614-.382 1.079-.697 1.394-.315.315-.788.55-1.418.705-.63.155-1.495.307-2.596.456a.618.618 0 0 0-.352.177.499.499 0 0 0-.144.368c0 .15.048.27.144.36.096.091.214.153.352.185 1.1.203 1.966.39 2.596.56.63.171 1.103.41 1.418.714.315.304.544.755.689 1.353.144.598.29 1.431.44 2.5.01.138.067.253.168.344.102.09.227.136.377.136zM31.042 41.745c.213 0 .341-.122.384-.368.139-.758.267-1.36.385-1.802.117-.444.288-.785.512-1.026.225-.24.561-.424 1.01-.552.448-.129 1.078-.262 1.89-.401.246-.043.369-.176.369-.4 0-.225-.123-.358-.369-.401-.812-.139-1.442-.275-1.89-.409-.449-.133-.785-.317-1.01-.552-.224-.235-.395-.574-.512-1.018a24.354 24.354 0 0 1-.385-1.818c-.043-.235-.17-.352-.384-.352-.225 0-.358.117-.4.352a24.354 24.354 0 0 1-.385 1.818c-.118.444-.289.783-.513 1.018-.224.235-.56.419-1.01.552-.448.134-1.073.27-1.874.409-.245.043-.368.176-.368.4 0 .225.123.358.368.401.801.139 1.426.272 1.875.4.448.129.785.313 1.009.553.224.24.395.582.513 1.026.117.443.245 1.044.384 1.802a.535.535 0 0 0 .128.264c.064.07.155.104.273.104z" fill="#D80264"/>
        </g>
    </g>
</svg>
