<svg width="345" height="40" viewBox="0 0 345 40" xmlns="http://www.w3.org/2000/svg" xmlns:xlink="http://www.w3.org/1999/xlink">
    <defs>
        <path d="M20 0h305c11.046 0 20 8.954 20 20s-8.954 20-20 20H20C8.954 40 0 31.046 0 20S8.954 0 20 0z" id="o9nvvzmfia"/>
        <path d="M0 0h321v24H0V0z" id="8k7r8mvbib"/>
    </defs>
    <g fill="none" xlink:href="#o9nvvzmfia">
        <use fill="#DEF2FB" fill-rule="evenodd" xlink:href="#o9nvvzmfia"/>
        <g xlink:href="#8k7r8mvbib">
            <text font-family="PingFangSC-Regular, PingFang SC" font-size="16" fill="#000" transform="translate(12 8)">
                <tspan x="32" y="18">Can virtual personality heal loneliness?</tspan>
            </text>
            <g fill-rule="evenodd">
                <path d="M20.804 13.458a3.58 3.58 0 0 1 3.074-1.046l5.454.797c2.008.293 3.407 2.224 3.125 4.312l-1.022 7.56-1.167-.17" stroke="#110C13" stroke-width="1.432" stroke-linecap="round"/>
                <path fill="#110C13" d="m18.494 22.375 7.348-.04-.01 1.907-7.349.04z"/>
                <path d="m18.77 16.113 5.171-.756a3.818 3.818 0 0 1 4.335 3.266l.51 3.775a3.818 3.818 0 0 1-3.23 4.289L16.565 28l-1.026-7.598a3.818 3.818 0 0 1 3.23-4.29z" stroke="#110C13" stroke-width="1.432"/>
            </g>
        </g>
    </g>
</svg>
