<svg width="21" height="22" viewBox="0 0 21 22" fill="none" xmlns="http://www.w3.org/2000/svg">
    <path d="M1.364 4.843h18.273c.578 0 1.045-.456 1.045-1.018s-.467-1.018-1.045-1.018H1.364c-.578 0-1.046.456-1.046 1.018s.468 1.018 1.046 1.018zm18.272 5.09H1.364c-.579 0-1.046.457-1.046 1.02 0 .561.467 1.017 1.046 1.017h18.273c.578 0 1.045-.456 1.045-1.018s-.47-1.018-1.046-1.018zm0 7.212H1.364c-.577 0-1.046.456-1.046 1.018 0 .563.468 1.019 1.046 1.019h18.273c.578 0 1.045-.456 1.045-1.019 0-.561-.467-1.018-1.046-1.018z" fill="#fff"/>
</svg>
