<svg width="33" height="39" viewBox="0 0 33 39" fill="none" xmlns="http://www.w3.org/2000/svg">
    <path d="M18.47 8.115c1.662 0 3.744-1.007 4.984-2.35 1.123-1.216 1.942-2.915 1.942-4.615a2.8 2.8 0 0 0-.07-.65c-1.849.063-4.071 1.112-5.405 2.517-1.053 1.07-2.012 2.749-2.012 4.469 0 .252.047.504.07.587.117.021.304.042.492.042zM12.622 33.5c2.27 0 3.276-1.364 6.107-1.364 2.878 0 3.51 1.322 6.036 1.322 2.48 0 4.142-2.056 5.71-4.07 1.754-2.308 2.48-4.573 2.526-4.678-.164-.042-4.913-1.783-4.913-6.672 0-4.237 3.743-6.146 3.954-6.293-2.48-3.189-6.247-3.273-7.277-3.273-2.784 0-5.053 1.51-6.48 1.51-1.545 0-3.58-1.426-5.99-1.426-4.586 0-9.242 3.399-9.242 9.818 0 3.986 1.731 8.203 3.86 10.93 1.825 2.308 3.416 4.196 5.71 4.196z" fill="#fff"/>
</svg>
